<svg width="22" height="21" viewBox="0 0 22 21" fill="none" xmlns="http://www.w3.org/2000/svg">
<path d="M19.6119 3.13279C19.1101 2.61532 18.5135 2.20467 17.8564 1.92446C17.1993 1.64425 16.4947 1.5 15.7831 1.5C15.0714 1.5 14.3668 1.64425 13.7097 1.92446C13.0526 2.20467 12.456 2.61532 11.9542 3.13279L11.3604 3.74178C11.2554 3.84878 11.1135 3.90884 10.9655 3.90884C10.8175 3.90884 10.6755 3.84878 10.5705 3.74178L9.97673 3.13279C8.95114 2.12893 7.5833 1.57642 6.16567 1.59338C4.74805 1.61034 3.39315 2.19543 2.39067 3.22355C1.38819 4.25168 0.817689 5.64123 0.801151 7.09512C0.784613 8.549 1.32335 9.95183 2.30217 11.0037L10.5705 19.4663C10.6755 19.5733 10.8175 19.6333 10.9655 19.6333C11.1135 19.6333 11.2554 19.5733 11.3604 19.4663L19.6119 11.0037C20.6293 9.95972 21.2008 8.54417 21.2008 7.06822C21.2008 5.59227 20.6293 4.17673 19.6119 3.13279Z" stroke="white" stroke-width="1.5"/>
</svg>
